<?xml version="1.0" standalone="no"?>
<!DOCTYPE svg PUBLIC "-//W3C//DTD SVG 20010904//EN"
 "http://www.w3.org/TR/2001/REC-SVG-20010904/DTD/svg10.dtd">
<svg version="1.0" xmlns="http://www.w3.org/2000/svg"
 width="500.000000pt" height="331.000000pt" viewBox="0 0 500.000000 331.000000"
 preserveAspectRatio="xMidYMid meet">

<g transform="translate(0.000000,331.000000) scale(0.100000,-0.100000)"
fill="#000000" stroke="none">
<path d="M0 1655 l0 -1655 2500 0 2500 0 0 1655 0 1655 -2500 0 -2500 0 0
-1655z m2720 353 c0 -5 -7 -20 -16 -33 -9 -14 -13 -25 -8 -25 9 0 -28 -29 -38
-30 -12 0 4 74 18 86 16 13 44 14 44 2z m210 -8 c0 -5 -2 -10 -4 -10 -3 0 -8
5 -11 10 -3 6 -1 10 4 10 6 0 11 -4 11 -10z m41 -19 c-12 -8 -12 -12 -2 -25
10 -12 11 -16 1 -16 -7 0 -10 -6 -7 -14 6 -16 -29 -53 -40 -43 -3 4 -2 17 4
30 6 12 15 34 22 50 6 15 16 27 23 27 9 0 9 -3 -1 -9z m-168 -14 c3 -8 -1 -14
-8 -14 -7 0 -11 6 -8 14 3 7 6 13 8 13 2 0 5 -6 8 -13z m21 -78 c10 -17 15
-33 11 -37 -7 -8 -55 43 -55 59 0 20 27 7 44 -22z m-234 -201 c20 -2 33 -19
68 -88 23 -47 54 -95 67 -108 24 -22 35 -49 15 -37 -16 10 -2 -59 15 -71 19
-14 20 -28 0 -20 -8 3 -15 2 -15 -2 0 -10 43 -37 53 -34 5 1 6 -2 2 -8 -4 -6
-12 -10 -18 -9 -32 4 -39 -2 -35 -26 4 -21 3 -23 -13 -14 -11 5 -19 14 -19 20
0 6 5 7 10 4 6 -3 10 -1 10 5 0 7 -6 10 -12 7 -7 -2 -12 -14 -10 -27 2 -20 0
-21 -14 -9 -10 8 -27 14 -38 15 -32 1 -76 15 -76 24 0 4 -9 10 -20 13 -11 3
-20 14 -20 24 0 10 -5 24 -11 30 -14 14 10 53 63 105 42 40 51 74 18 65 -11
-3 -18 -1 -14 4 3 5 0 9 -6 9 -16 0 -40 26 -40 44 0 21 -18 30 -35 16 -30 -25
-34 -3 -5 30 16 19 30 41 30 49 0 10 4 11 13 3 6 -5 23 -12 37 -14z m347 -204
c-3 -3 -12 -4 -19 -1 -8 3 -5 6 6 6 11 1 17 -2 13 -5z m121 -31 c-10 -2 -26
-2 -35 0 -10 3 -2 5 17 5 19 0 27 -2 18 -5z m-83 -103 c13 -5 14 -9 5 -9 -8 0
-24 4 -35 9 -13 5 -14 9 -5 9 8 0 24 -4 35 -9z m-39 -28 c-6 -6 -56 10 -56 18
0 5 13 3 30 -3 16 -6 28 -13 26 -15z m-76 -37 c11 -13 10 -14 -4 -9 -9 3 -16
10 -16 15 0 13 6 11 20 -6z m447 1 c-4 -9 3 -16 16 -20 22 -6 21 -7 -5 -21
-19 -11 -25 -20 -21 -35 3 -11 13 -20 22 -20 14 -1 14 -2 -1 -11 -10 -6 -15
-16 -11 -26 5 -13 2 -15 -16 -10 -18 4 -21 2 -17 -16 3 -12 3 -16 0 -9 -3 6
-13 12 -22 12 -12 0 -17 -8 -16 -28 0 -16 4 -34 8 -40 8 -13 -20 -6 -42 11
-17 13 -4 -22 15 -42 11 -10 11 -16 2 -28 -9 -10 -14 -11 -19 -3 -5 8 -9 7
-13 -3 -3 -8 3 -27 14 -43 24 -37 24 -47 0 -34 -27 14 -31 13 -31 -8 0 -21
-29 -64 -30 -44 0 7 -5 10 -11 6 -6 -3 -9 -28 -7 -58 3 -46 1 -51 -19 -54 -16
-2 -23 -10 -23 -26 0 -37 -21 -55 -57 -49 -18 3 -33 9 -33 14 0 5 -7 9 -15 9
-8 0 -15 6 -16 13 0 10 -2 10 -6 0 -2 -7 -17 -13 -33 -13 -16 0 -30 6 -33 13
-5 12 -8 5 -22 -38 -4 -13 -8 -13 -25 -3 -11 7 -20 18 -20 25 0 6 -7 18 -15
27 -8 8 -18 29 -21 45 l-6 31 50 0 51 0 7 48 c5 26 7 51 6 56 -2 5 4 6 12 3
11 -4 18 1 22 18 3 14 10 25 15 25 12 0 49 38 49 50 0 6 5 10 10 10 6 0 10 7
10 15 0 8 6 15 13 15 7 0 30 16 51 35 21 19 43 35 48 35 5 0 7 17 4 38 -4 24
-3 32 3 23 5 -8 16 -11 26 -8 9 4 14 3 10 -3 -3 -6 -1 -10 4 -10 6 0 11 9 11
20 0 11 -4 20 -9 20 -5 0 -11 7 -14 15 -5 11 -1 12 18 5 19 -7 23 -6 19 4 -3
8 0 17 7 22 8 4 10 3 5 -4 -4 -7 -2 -12 4 -12 6 0 13 13 16 29 6 29 13 33 73
40 7 0 11 -5 8 -13z m-677 -101 c0 -8 -4 -15 -10 -15 -5 0 -10 7 -10 15 0 8 5
15 10 15 6 0 10 -7 10 -15z m-44 -22 c-10 -10 -19 5 -10 18 6 11 8 11 12 0 2
-7 1 -15 -2 -18z m-76 2 c0 -8 -4 -15 -10 -15 -5 0 -10 7 -10 15 0 8 5 15 10
15 6 0 10 -7 10 -15z m600 -14 c0 -17 -52 -71 -68 -71 -12 0 -13 3 -5 11 6 6
9 17 7 24 -4 8 6 16 25 20 17 4 31 11 31 16 0 5 2 9 5 9 3 0 5 -4 5 -9z m-490
-541 c5 -19 10 -43 10 -52 0 -24 -17 -31 -28 -11 -8 14 -13 15 -25 5 -12 -10
-15 -6 -20 24 -3 20 -14 45 -23 55 -17 19 -16 19 29 17 45 -3 48 -5 57 -38z
m-164 -67 c-11 -11 -17 4 -9 23 7 18 8 18 11 1 2 -10 1 -21 -2 -24z m-908 -65
c8 -8 12 -9 12 -1 0 14 34 6 78 -19 18 -10 46 -18 63 -18 40 0 105 -66 116
-118 12 -58 8 -152 -8 -167 -19 -17 -94 -26 -109 -11 -8 8 -16 5 -30 -14 -11
-14 -20 -20 -20 -14 0 11 -27 19 -90 29 -14 2 -27 4 -30 5 -3 1 -8 2 -12 1 -4
0 -5 5 -2 13 3 8 1 17 -5 21 -6 3 -11 19 -11 35 0 15 -5 30 -12 32 -6 2 -11
18 -11 36 0 18 -4 32 -9 32 -4 0 -8 5 -8 10 0 6 11 10 25 10 15 0 25 6 25 14
0 9 7 12 21 9 18 -5 20 -2 17 23 -3 27 -6 29 -50 32 -33 2 -48 8 -48 17 0 12
-4 12 -27 -1 -36 -18 -63 -18 -63 1 0 12 33 32 80 48 29 10 96 7 108 -5z
m1687 -18 c58 -13 110 -43 132 -76 9 -15 15 -47 16 -85 0 -49 4 -63 17 -66 12
-3 16 -14 13 -41 -4 -60 -13 -71 -28 -37 -8 18 -14 23 -14 13 -2 -27 -50 -59
-88 -56 -21 1 -33 7 -33 16 0 8 -7 20 -17 27 -12 9 -16 26 -14 64 1 28 -2 51
-7 51 -8 0 -27 -62 -38 -123 -3 -20 -11 -40 -17 -44 -6 -3 -7 -1 -3 5 4 7 2
12 -3 12 -6 0 -11 14 -11 31 0 27 -2 30 -15 19 -11 -9 -15 -9 -15 -1 0 6 9 19
21 29 23 19 43 60 40 80 -1 8 3 20 9 27 7 8 9 19 5 26 -4 6 -2 14 4 18 17 11
-27 64 -48 58 -9 -2 -23 3 -30 11 -13 13 -16 13 -26 -2 -16 -21 -20 -20 -22 4
-1 11 2 18 6 15 5 -2 11 4 14 14 7 30 54 33 152 11z m-185 -70 c12 -8 11 -10
-7 -10 -12 0 -25 5 -28 10 -8 13 15 13 35 0z m-40 -50 c0 -5 -5 -10 -11 -10
-5 0 -7 5 -4 10 3 6 8 10 11 10 2 0 4 -4 4 -10z m-60 -39 c0 -6 -4 -13 -10
-16 -5 -3 -10 1 -10 9 0 9 5 16 10 16 6 0 10 -4 10 -9z m197 -43 c-3 -7 -5 -2
-5 12 0 14 2 19 5 13 2 -7 2 -19 0 -25z m-2 -28 c-3 -5 -10 -10 -16 -10 -5 0
-9 5 -9 10 0 6 7 10 16 10 8 0 12 -4 9 -10z m-25 -84 c0 -3 -4 -8 -10 -11 -5
-3 -10 -1 -10 4 0 6 5 11 10 11 6 0 10 -2 10 -4z"/>
<path d="M1536 302 c-3 -6 -1 -14 5 -17 15 -10 25 3 12 16 -7 7 -13 7 -17 1z"/>
<path d="M3215 290 c-3 -5 -1 -10 4 -10 6 0 11 5 11 10 0 6 -2 10 -4 10 -3 0
-8 -4 -11 -10z"/>
</g>
</svg>
